<svg width="54" height="49" viewBox="0 0 54 49" fill="none" xmlns="http://www.w3.org/2000/svg">
<path d="M0 30.9C0 24.0605 3.90132 18.1322 9.6 15.2191V9.6C9.6 4.29806 5.30193 0 0 0V30.9Z" fill="#FF2B37"/>
<path fill-rule="evenodd" clip-rule="evenodd" d="M22.8338 14.0913C19.9463 16.4248 17.6697 19.4903 16.2881 23.007C12.4939 23.633 9.6 26.9285 9.6 30.9C9.6 34.8713 12.4936 38.1667 16.2875 38.7929C17.668 42.308 19.9435 45.3735 22.8333 47.7089C21.1801 48.223 19.4224 48.5 17.6 48.5C7.87979 48.5 0 40.6202 0 30.9C0 24.0605 3.90132 18.1322 9.6 15.2191C12.0002 13.9921 14.7193 13.3 17.6 13.3C19.4226 13.3 21.1804 13.577 22.8338 14.0913Z" fill="#FF2B37"/>
<path d="M0 30.9C0 24.0605 3.90132 18.1322 9.6 15.2191V9.6C9.6 4.29806 5.30193 0 0 0V30.9Z" fill="#FF2B37"/>
<path d="M0 30.9C0 24.0605 3.90132 18.1322 9.6 15.2191V9.6C9.6 4.29806 5.30193 0 0 0V30.9Z" fill="url(#paint0_linear_220_1014)"/>
<path d="M28.3998 30.9008C28.3998 26.4825 31.9815 22.9008 36.3998 22.9008C36.8109 22.9008 37.2147 22.9318 37.609 22.9916C40.5085 23.4312 42.897 25.4271 43.8961 28.1008L53.7783 28.1008C52.953 22.9383 49.8826 18.525 45.5998 15.8939C43.115 14.3673 40.2221 13.4406 37.1228 13.3154C36.9573 13.3087 36.7912 13.3043 36.6245 13.3022C36.5986 13.3019 36.5727 13.3016 36.5468 13.3014C36.4979 13.301 36.4489 13.3008 36.3998 13.3008C33.0276 13.3008 29.8768 14.2492 27.1998 15.8939C22.1605 18.9898 18.7998 24.5528 18.7998 30.9008C18.7998 33.0453 19.1834 35.1003 19.8856 37.0008C22.3664 43.7144 28.8241 48.5008 36.3998 48.5008C40.9975 48.5008 45.1834 46.7378 48.3185 43.851C48.4701 43.7115 48.6192 43.5692 48.7658 43.4244L45.3933 40.0089L42.0207 36.5934C41.6731 36.9366 41.2942 37.2483 40.8887 37.5237C39.6088 38.3929 38.0636 38.9008 36.3998 38.9008C31.9815 38.9008 28.3998 35.3191 28.3998 30.9008Z" fill="#FF2B37"/>
<path d="M53.9998 30.9008H36.3998L42.0207 36.5934L45.3933 40.0089L48.7658 43.4244L53.7783 48.5008L53.9998 30.9008Z" fill="#FF2B37"/>
<path fill-rule="evenodd" clip-rule="evenodd" d="M36.3998 22.9008C31.9815 22.9008 28.3998 26.4825 28.3998 30.9008C28.3998 35.3191 31.9815 38.9008 36.3998 38.9008C38.0636 38.9008 39.6088 38.3929 40.8887 37.5236C41.2942 37.2483 41.6731 36.9366 42.0207 36.5933C37.9998 41.6008 28.3998 43.851 19.8856 37.0008C19.1834 35.1003 18.7998 33.0453 18.7998 30.9008C18.7998 24.5528 22.1605 18.9898 27.1998 15.8939C29.8768 14.2492 33.0276 13.3008 36.3998 13.3008C36.4489 13.3008 36.4979 13.301 36.5468 13.3014C36.5727 13.3016 36.5986 13.3019 36.6245 13.3022C36.7912 13.3043 36.9573 13.3087 37.1228 13.3154C40.2221 13.4406 43.115 14.3673 45.5998 15.8938C49.8826 18.525 52.953 22.9382 53.7783 28.1008L43.8961 28.1008C42.897 25.4271 40.5085 23.4312 37.609 22.9916C37.2147 22.9318 36.8109 22.9008 36.3998 22.9008Z" fill="#FF2B37"/>
<path fill-rule="evenodd" clip-rule="evenodd" d="M36.3998 22.9008C31.9815 22.9008 28.3998 26.4825 28.3998 30.9008C28.3998 35.3191 31.9815 38.9008 36.3998 38.9008C38.0636 38.9008 39.6088 38.3929 40.8887 37.5236C41.2942 37.2483 41.6731 36.9366 42.0207 36.5933C37.9998 41.6008 28.3998 43.851 19.8856 37.0008C19.1834 35.1003 18.7998 33.0453 18.7998 30.9008C18.7998 24.5528 22.1605 18.9898 27.1998 15.8939C29.8768 14.2492 33.0276 13.3008 36.3998 13.3008C36.4489 13.3008 36.4979 13.301 36.5468 13.3014C36.5727 13.3016 36.5986 13.3019 36.6245 13.3022C36.7912 13.3043 36.9573 13.3087 37.1228 13.3154C40.2221 13.4406 43.115 14.3673 45.5998 15.8938C49.8826 18.525 52.953 22.9382 53.7783 28.1008L43.8961 28.1008C42.897 25.4271 40.5085 23.4312 37.609 22.9916C37.2147 22.9318 36.8109 22.9008 36.3998 22.9008Z" fill="url(#paint1_linear_220_1014)"/>
<defs>
<linearGradient id="paint0_linear_220_1014" x1="4.8" y1="0" x2="4.8" y2="30.9" gradientUnits="userSpaceOnUse">
<stop stop-color="#FF2B37"/>
<stop offset="1" stop-color="#961A21"/>
</linearGradient>
<linearGradient id="paint1_linear_220_1014" x1="36.2891" y1="13.3008" x2="23.1998" y2="43.2008" gradientUnits="userSpaceOnUse">
<stop stop-color="#FF2B37"/>
<stop offset="1" stop-color="#961A21"/>
</linearGradient>
</defs>
</svg>
